<?xml version="1.0" encoding="utf-8"?>
<svg
  version="1.1"
  xmlns="http://www.w3.org/2000/svg"
  viewBox="0 0 1955.834 1200"
  role="img"
  aria-labelledby="title desc"
>
  <title id="title">Same Page gavel illustration</title>
  <desc id="desc">A flat muted gavel illustration from the Same Page Figma export.</desc>
  <path fill="#0D1200" d="M1522.041,504.197l1.903-1.099l-179.235-310.445l-1.903,1.099c73.854-64.817-9.713-182.037-95.215-132.672L832.282,300.858c-85.55,49.392-25.701,180.322,67.289,148.795l-1.903,1.099l71.564,123.952l-109.853,64.65l-10.981-19.019C575.27,720.139,309.648,869.619,80.391,1052.988c-59.666,47.724-4.849,142.681,66.332,114.863c273.856-107.025,535.939-262.368,758.679-448.782l-10.978-19.014l110.915-62.81l71.564,123.952l1.903-1.099c-73.855,64.818,9.713,182.037,95.215,132.672l415.308-239.778C1674.693,603.707,1615.226,472.604,1522.041,504.197z"/>
</svg>
